<svg width="120" height="25" viewBox="0 0 120 25" fill="none" xmlns="http://www.w3.org/2000/svg">
<path d="M8.448 24C8.228 24 8.041 23.923 7.887 23.769C7.733 23.615 7.656 23.428 7.656 23.208V4.959H1.551C1.331 4.959 1.144 4.882 0.99 4.728C0.836 4.574 0.759 4.387 0.759 4.167V1.725C0.759 1.483 0.836 1.285 0.99 1.131C1.144 0.976999 1.331 0.899998 1.551 0.899998H18.381C18.623 0.899998 18.821 0.976999 18.975 1.131C19.129 1.285 19.206 1.483 19.206 1.725V4.167C19.206 4.387 19.129 4.574 18.975 4.728C18.821 4.882 18.623 4.959 18.381 4.959H12.309V23.208C12.309 23.428 12.232 23.615 12.078 23.769C11.924 23.923 11.726 24 11.484 24H8.448ZM28.1712 24.33C25.7292 24.33 23.7932 23.626 22.3632 22.218C20.9332 20.81 20.1632 18.808 20.0532 16.212C20.0312 15.992 20.0202 15.717 20.0202 15.387C20.0202 15.035 20.0312 14.76 20.0532 14.562C20.1412 12.912 20.5152 11.482 21.1752 10.272C21.8572 9.062 22.7922 8.138 23.9802 7.5C25.1682 6.84 26.5652 6.51 28.1712 6.51C29.9532 6.51 31.4492 6.884 32.6592 7.632C33.8692 8.358 34.7822 9.381 35.3982 10.701C36.0142 11.999 36.3222 13.506 36.3222 15.222V15.915C36.3222 16.135 36.2452 16.322 36.0912 16.476C35.9372 16.63 35.7392 16.707 35.4972 16.707H24.5412C24.5412 16.707 24.5412 16.74 24.5412 16.806C24.5412 16.872 24.5412 16.927 24.5412 16.971C24.5632 17.741 24.7062 18.456 24.9702 19.116C25.2562 19.754 25.6632 20.271 26.1912 20.667C26.7412 21.063 27.3902 21.261 28.1382 21.261C28.7542 21.261 29.2712 21.173 29.6892 20.997C30.1072 20.799 30.4482 20.579 30.7122 20.337C30.9762 20.095 31.1632 19.897 31.2732 19.743C31.4712 19.479 31.6252 19.325 31.7352 19.281C31.8672 19.215 32.0542 19.182 32.2962 19.182H35.1342C35.3542 19.182 35.5302 19.248 35.6622 19.38C35.8162 19.512 35.8822 19.677 35.8602 19.875C35.8382 20.227 35.6512 20.656 35.2992 21.162C34.9692 21.668 34.4852 22.163 33.8472 22.647C33.2092 23.131 32.4062 23.538 31.4382 23.868C30.4922 24.176 29.4032 24.33 28.1712 24.33ZM24.5412 13.935H31.8342V13.836C31.8342 12.978 31.6912 12.23 31.4052 11.592C31.1192 10.954 30.7012 10.448 30.1512 10.074C29.6012 9.7 28.9412 9.513 28.1712 9.513C27.4012 9.513 26.7412 9.7 26.1912 10.074C25.6412 10.448 25.2232 10.954 24.9372 11.592C24.6732 12.23 24.5412 12.978 24.5412 13.836V13.935ZM41.3446 24C41.1026 24 40.9046 23.923 40.7506 23.769C40.6186 23.615 40.5526 23.428 40.5526 23.208V21.327C40.5526 21.129 40.5966 20.942 40.6846 20.766C40.7946 20.568 40.9046 20.403 41.0146 20.271L49.4626 10.272H41.6086C41.3886 10.272 41.2016 10.206 41.0476 10.074C40.8936 9.92 40.8166 9.722 40.8166 9.48V7.632C40.8166 7.412 40.8936 7.225 41.0476 7.071C41.2016 6.917 41.3886 6.84 41.6086 6.84H54.1156C54.3576 6.84 54.5446 6.917 54.6766 7.071C54.8306 7.225 54.9076 7.412 54.9076 7.632V9.645C54.9076 9.843 54.8636 10.019 54.7756 10.173C54.6876 10.327 54.5776 10.492 54.4456 10.668L46.1956 20.568H54.8086C55.0286 20.568 55.2156 20.645 55.3696 20.799C55.5236 20.931 55.6006 21.118 55.6006 21.36V23.208C55.6006 23.428 55.5236 23.615 55.3696 23.769C55.2156 23.923 55.0286 24 54.8086 24H41.3446Z" fill="#FF6838"/>
<path d="M61.7799 24C61.5599 24 61.3729 23.923 61.2189 23.769C61.0649 23.615 60.9879 23.428 60.9879 23.208V1.725C60.9879 1.483 61.0649 1.285 61.2189 1.131C61.3729 0.976999 61.5599 0.899998 61.7799 0.899998H70.3269C72.9889 0.899998 75.0899 1.516 76.6299 2.748C78.1699 3.98 78.9399 5.773 78.9399 8.127C78.9399 9.755 78.5329 11.108 77.7189 12.186C76.9269 13.264 75.8599 14.045 74.5179 14.529L79.3359 22.944C79.4019 23.076 79.4349 23.197 79.4349 23.307C79.4349 23.505 79.3579 23.67 79.2039 23.802C79.0719 23.934 78.9179 24 78.7419 24H75.7389C75.3649 24 75.0789 23.901 74.8809 23.703C74.6829 23.505 74.5289 23.307 74.4189 23.109L70.1619 15.288H65.5749V23.208C65.5749 23.428 65.4979 23.615 65.3439 23.769C65.2119 23.923 65.0249 24 64.7829 24H61.7799ZM65.5749 11.559H70.2279C71.5699 11.559 72.5709 11.262 73.2309 10.668C73.8909 10.052 74.2209 9.194 74.2209 8.094C74.2209 6.994 73.8909 6.136 73.2309 5.52C72.5929 4.882 71.5919 4.563 70.2279 4.563H65.5749V11.559ZM89.429 24.33C88.285 24.33 87.251 24.11 86.327 23.67C85.403 23.208 84.666 22.603 84.116 21.855C83.588 21.085 83.324 20.227 83.324 19.281C83.324 17.741 83.94 16.52 85.172 15.618C86.426 14.694 88.076 14.078 90.122 13.77L94.643 13.11V12.417C94.643 11.493 94.412 10.778 93.95 10.272C93.488 9.766 92.696 9.513 91.574 9.513C90.782 9.513 90.133 9.678 89.627 10.008C89.143 10.316 88.78 10.734 88.538 11.262C88.362 11.548 88.109 11.691 87.779 11.691H85.172C84.93 11.691 84.743 11.625 84.611 11.493C84.501 11.361 84.446 11.185 84.446 10.965C84.468 10.613 84.611 10.184 84.875 9.678C85.139 9.172 85.557 8.688 86.129 8.226C86.701 7.742 87.438 7.335 88.34 7.005C89.242 6.675 90.331 6.51 91.607 6.51C92.993 6.51 94.159 6.686 95.105 7.038C96.073 7.368 96.843 7.819 97.415 8.391C97.987 8.963 98.405 9.634 98.669 10.404C98.933 11.174 99.065 11.988 99.065 12.846V23.208C99.065 23.428 98.988 23.615 98.834 23.769C98.68 23.923 98.493 24 98.273 24H95.6C95.358 24 95.16 23.923 95.006 23.769C94.874 23.615 94.808 23.428 94.808 23.208V21.921C94.522 22.339 94.137 22.735 93.653 23.109C93.169 23.461 92.575 23.758 91.871 24C91.189 24.22 90.375 24.33 89.429 24.33ZM90.551 21.195C91.321 21.195 92.014 21.03 92.63 20.7C93.268 20.37 93.763 19.864 94.115 19.182C94.489 18.478 94.676 17.598 94.676 16.542V15.849L91.376 16.377C90.078 16.575 89.11 16.894 88.472 17.334C87.834 17.774 87.515 18.313 87.515 18.951C87.515 19.435 87.658 19.853 87.944 20.205C88.252 20.535 88.637 20.788 89.099 20.964C89.561 21.118 90.045 21.195 90.551 21.195ZM111.45 24.33C110.13 24.33 108.997 24.176 108.051 23.868C107.127 23.56 106.368 23.175 105.774 22.713C105.18 22.251 104.74 21.789 104.454 21.327C104.168 20.865 104.014 20.48 103.992 20.172C103.97 19.93 104.036 19.743 104.19 19.611C104.366 19.457 104.553 19.38 104.751 19.38H107.358C107.446 19.38 107.523 19.391 107.589 19.413C107.655 19.435 107.743 19.501 107.853 19.611C108.139 19.853 108.436 20.106 108.744 20.37C109.074 20.634 109.459 20.865 109.899 21.063C110.339 21.239 110.889 21.327 111.549 21.327C112.407 21.327 113.122 21.162 113.694 20.832C114.288 20.48 114.585 19.985 114.585 19.347C114.585 18.885 114.453 18.511 114.189 18.225C113.947 17.939 113.485 17.686 112.803 17.466C112.121 17.224 111.153 16.971 109.899 16.707C108.667 16.421 107.644 16.058 106.83 15.618C106.016 15.178 105.411 14.628 105.015 13.968C104.619 13.308 104.421 12.538 104.421 11.658C104.421 10.8 104.674 9.986 105.18 9.216C105.708 8.424 106.478 7.775 107.49 7.269C108.524 6.763 109.8 6.51 111.318 6.51C112.506 6.51 113.54 6.664 114.42 6.972C115.3 7.258 116.026 7.621 116.598 8.061C117.192 8.501 117.643 8.952 117.951 9.414C118.259 9.854 118.424 10.239 118.446 10.569C118.468 10.811 118.402 11.009 118.248 11.163C118.094 11.295 117.918 11.361 117.72 11.361H115.278C115.168 11.361 115.069 11.339 114.981 11.295C114.893 11.251 114.805 11.196 114.717 11.13C114.475 10.91 114.211 10.679 113.925 10.437C113.639 10.195 113.287 9.986 112.869 9.81C112.473 9.612 111.945 9.513 111.285 9.513C110.449 9.513 109.811 9.7 109.371 10.074C108.931 10.426 108.711 10.877 108.711 11.427C108.711 11.801 108.81 12.131 109.008 12.417C109.228 12.681 109.657 12.934 110.295 13.176C110.933 13.418 111.901 13.671 113.199 13.935C114.673 14.199 115.839 14.595 116.697 15.123C117.577 15.629 118.193 16.223 118.545 16.905C118.919 17.565 119.106 18.302 119.106 19.116C119.106 20.106 118.809 20.997 118.215 21.789C117.643 22.581 116.785 23.208 115.641 23.67C114.519 24.11 113.122 24.33 111.45 24.33Z" fill="#FAC412"/>
</svg>
