<svg width="15" height="13" viewBox="0 0 15 13" fill="none" xmlns="http://www.w3.org/2000/svg">
<g id="bi:credit-card-2-front-fill" clip-path="url(#clip0_0_121)">
<g id="Group">
<path id="Vector" fill-rule="evenodd" clip-rule="evenodd" d="M0.865784 3.84711C0.865784 3.45384 1.03984 3.07667 1.34966 2.79858C1.65948 2.52049 2.07969 2.36426 2.51784 2.36426H12.4302C12.8683 2.36426 13.2885 2.52049 13.5984 2.79858C13.9082 3.07667 14.0822 3.45384 14.0822 3.84711V9.77853C14.0822 10.1718 13.9082 10.549 13.5984 10.8271C13.2885 11.1052 12.8683 11.2614 12.4302 11.2614H2.51784C2.07969 11.2614 1.65948 11.1052 1.34966 10.8271C1.03984 10.549 0.865784 10.1718 0.865784 9.77853V3.84711ZM2.93085 4.58854C2.82132 4.58854 2.71626 4.6276 2.63881 4.69712C2.56135 4.76664 2.51784 4.86093 2.51784 4.95925V5.70068C2.51784 5.799 2.56135 5.89329 2.63881 5.96282C2.71626 6.03234 2.82132 6.07139 2.93085 6.07139H4.58291C4.69245 6.07139 4.7975 6.03234 4.87496 5.96282C4.95241 5.89329 4.99592 5.799 4.99592 5.70068V4.95925C4.99592 4.86093 4.95241 4.76664 4.87496 4.69712C4.7975 4.6276 4.69245 4.58854 4.58291 4.58854H2.93085ZM2.93085 6.81282C2.82132 6.81282 2.71626 6.85188 2.63881 6.9214C2.56135 6.99092 2.51784 7.08522 2.51784 7.18354C2.51784 7.28186 2.56135 7.37615 2.63881 7.44567C2.71626 7.51519 2.82132 7.55425 2.93085 7.55425H7.06099C7.17053 7.55425 7.27558 7.51519 7.35304 7.44567C7.43049 7.37615 7.47401 7.28186 7.47401 7.18354C7.47401 7.08522 7.43049 6.99092 7.35304 6.9214C7.27558 6.85188 7.17053 6.81282 7.06099 6.81282H2.93085ZM2.93085 8.29568C2.82132 8.29568 2.71626 8.33473 2.63881 8.40426C2.56135 8.47378 2.51784 8.56807 2.51784 8.66639C2.51784 8.76471 2.56135 8.859 2.63881 8.92853C2.71626 8.99805 2.82132 9.0371 2.93085 9.0371H3.75688C3.86642 9.0371 3.97147 8.99805 4.04893 8.92853C4.12638 8.859 4.1699 8.76471 4.1699 8.66639C4.1699 8.56807 4.12638 8.47378 4.04893 8.40426C3.97147 8.33473 3.86642 8.29568 3.75688 8.29568H2.93085ZM5.40894 8.29568C5.2994 8.29568 5.19435 8.33473 5.11689 8.40426C5.03944 8.47378 4.99592 8.56807 4.99592 8.66639C4.99592 8.76471 5.03944 8.859 5.11689 8.92853C5.19435 8.99805 5.2994 9.0371 5.40894 9.0371H6.23497C6.3445 9.0371 6.44956 8.99805 6.52701 8.92853C6.60447 8.859 6.64798 8.76471 6.64798 8.66639C6.64798 8.56807 6.60447 8.47378 6.52701 8.40426C6.44956 8.33473 6.3445 8.29568 6.23497 8.29568H5.40894ZM7.88702 8.29568C7.77748 8.29568 7.67243 8.33473 7.59498 8.40426C7.51752 8.47378 7.47401 8.56807 7.47401 8.66639C7.47401 8.76471 7.51752 8.859 7.59498 8.92853C7.67243 8.99805 7.77748 9.0371 7.88702 9.0371H8.71305C8.82259 9.0371 8.92764 8.99805 9.0051 8.92853C9.08255 8.859 9.12606 8.76471 9.12606 8.66639C9.12606 8.56807 9.08255 8.47378 9.0051 8.40426C8.92764 8.33473 8.82259 8.29568 8.71305 8.29568H7.88702ZM10.3651 8.29568C10.2556 8.29568 10.1505 8.33473 10.0731 8.40426C9.99561 8.47378 9.95209 8.56807 9.95209 8.66639C9.95209 8.76471 9.99561 8.859 10.0731 8.92853C10.1505 8.99805 10.2556 9.0371 10.3651 9.0371H11.1911C11.3007 9.0371 11.4057 8.99805 11.4832 8.92853C11.5606 8.859 11.6041 8.76471 11.6041 8.66639C11.6041 8.56807 11.5606 8.47378 11.4832 8.40426C11.4057 8.33473 11.3007 8.29568 11.1911 8.29568H10.3651Z" fill="white"/>
</g>
</g>
<defs>
<clipPath id="clip0_0_121">
<rect width="13.2164" height="11.8628" fill="white" transform="translate(0.865784 0.881348)"/>
</clipPath>
</defs>
</svg>
