<svg width="51" height="50" viewBox="0 0 51 50" fill="none" xmlns="http://www.w3.org/2000/svg">
<g id="Iconly/Bulk/Send">
<g id="Send">
<path id="Fill 1" d="M14.6297 5.92797C13.5779 6.48061 12.9281 7.56199 12.9236 8.74505L12.7943 36.3257C12.7751 37.5697 13.4549 38.653 14.5597 39.2125C15.6855 39.7834 17.4339 39.44 18.3715 38.6001L25.6462 32.0782C26.3938 31.4097 26.5804 30.3208 26.0969 29.4473L19.595 17.6695C19.2501 17.0716 19.4757 16.3132 20.0931 15.9948C20.6914 15.6708 21.4443 15.8896 21.7875 16.4871L28.2847 28.2807C28.7678 29.1557 29.7916 29.5905 30.766 29.3329L40.283 26.8216C41.4096 26.531 42.2461 25.7099 42.5656 24.6355C42.6032 24.5091 42.6455 24.3669 42.6655 24.2354C42.8738 22.957 42.3163 21.7309 41.2255 21.0191L17.9404 6.06597C16.9521 5.41836 15.6799 5.37486 14.6297 5.92797Z" fill="url(#paint0_linear_0_75)"/>
<path id="Combined Shape" opacity="0.4" fill-rule="evenodd" clip-rule="evenodd" d="M27.5908 42.2013C27.5006 42.5046 27.2937 42.7741 26.9901 42.9364C26.384 43.2633 25.6263 43.0431 25.2956 42.4441L23.7535 39.6531C23.4244 39.0545 23.6476 38.304 24.2521 37.9767C24.8576 37.6515 25.6169 37.8721 25.9481 38.4695L27.4882 41.2617C27.6545 41.5606 27.681 41.8979 27.5908 42.2013ZM32.395 36.246C32.3048 36.5494 32.0979 36.8188 31.7943 36.9812C31.1883 37.3081 30.4306 37.0879 30.0999 36.4889L28.5578 33.6978C28.2287 33.0993 28.4519 32.3488 29.0563 32.0215C29.6619 31.6962 30.4212 31.9169 30.7523 32.5143L32.2924 35.3065C32.4588 35.6054 32.4853 35.9427 32.395 36.246ZM39.8614 36.9659C40.165 36.8035 40.3719 36.5341 40.4621 36.2307C40.5523 35.9274 40.5259 35.5901 40.3595 35.2912L38.8194 32.499C38.4883 31.9015 37.729 31.6809 37.1234 32.0062C36.5189 32.3335 36.2957 33.084 36.6248 33.6825L38.167 36.4736C38.4976 37.0726 39.2553 37.2927 39.8614 36.9659Z" fill="url(#paint1_linear_0_75)"/>
</g>
</g>
<defs>
<linearGradient id="paint0_linear_0_75" x1="19.3974" y1="40.6601" x2="28.5089" y2="9.81333" gradientUnits="userSpaceOnUse">
<stop stop-color="#F99462"/>
<stop offset="1" stop-color="#F99462" stop-opacity="0.65"/>
</linearGradient>
<linearGradient id="paint1_linear_0_75" x1="29.5621" y1="44.0609" x2="33.441" y2="30.9105" gradientUnits="userSpaceOnUse">
<stop stop-color="#F99462"/>
<stop offset="1" stop-color="#F99462" stop-opacity="0.65"/>
</linearGradient>
</defs>
</svg>
