<svg width="119" height="41" viewBox="0 0 119 41" fill="none" xmlns="http://www.w3.org/2000/svg">
<path d="M8.28101 24C8.06101 24 7.87401 23.923 7.72001 23.769C7.56601 23.615 7.48901 23.428 7.48901 23.208V4.959H1.38401C1.16401 4.959 0.977008 4.882 0.823008 4.728C0.669008 4.574 0.592008 4.387 0.592008 4.167V1.725C0.592008 1.483 0.669008 1.285 0.823008 1.131C0.977008 0.976999 1.16401 0.899998 1.38401 0.899998H18.214C18.456 0.899998 18.654 0.976999 18.808 1.131C18.962 1.285 19.039 1.483 19.039 1.725V4.167C19.039 4.387 18.962 4.574 18.808 4.728C18.654 4.882 18.456 4.959 18.214 4.959H12.142V23.208C12.142 23.428 12.065 23.615 11.911 23.769C11.757 23.923 11.559 24 11.317 24H8.28101ZM28.0042 24.33C25.5622 24.33 23.6262 23.626 22.1962 22.218C20.7662 20.81 19.9962 18.808 19.8862 16.212C19.8642 15.992 19.8532 15.717 19.8532 15.387C19.8532 15.035 19.8642 14.76 19.8862 14.562C19.9742 12.912 20.3482 11.482 21.0082 10.272C21.6902 9.062 22.6252 8.138 23.8132 7.5C25.0012 6.84 26.3982 6.51 28.0042 6.51C29.7862 6.51 31.2822 6.884 32.4922 7.632C33.7022 8.358 34.6152 9.381 35.2312 10.701C35.8472 11.999 36.1552 13.506 36.1552 15.222V15.915C36.1552 16.135 36.0782 16.322 35.9242 16.476C35.7702 16.63 35.5722 16.707 35.3302 16.707H24.3742C24.3742 16.707 24.3742 16.74 24.3742 16.806C24.3742 16.872 24.3742 16.927 24.3742 16.971C24.3962 17.741 24.5392 18.456 24.8032 19.116C25.0892 19.754 25.4962 20.271 26.0242 20.667C26.5742 21.063 27.2232 21.261 27.9712 21.261C28.5872 21.261 29.1042 21.173 29.5222 20.997C29.9402 20.799 30.2812 20.579 30.5452 20.337C30.8092 20.095 30.9962 19.897 31.1062 19.743C31.3042 19.479 31.4582 19.325 31.5682 19.281C31.7002 19.215 31.8872 19.182 32.1292 19.182H34.9672C35.1872 19.182 35.3632 19.248 35.4952 19.38C35.6492 19.512 35.7152 19.677 35.6932 19.875C35.6712 20.227 35.4842 20.656 35.1322 21.162C34.8022 21.668 34.3182 22.163 33.6802 22.647C33.0422 23.131 32.2392 23.538 31.2712 23.868C30.3252 24.176 29.2362 24.33 28.0042 24.33ZM24.3742 13.935H31.6672V13.836C31.6672 12.978 31.5242 12.23 31.2382 11.592C30.9522 10.954 30.5342 10.448 29.9842 10.074C29.4342 9.7 28.7742 9.513 28.0042 9.513C27.2342 9.513 26.5742 9.7 26.0242 10.074C25.4742 10.448 25.0562 10.954 24.7702 11.592C24.5062 12.23 24.3742 12.978 24.3742 13.836V13.935ZM41.1776 24C40.9356 24 40.7376 23.923 40.5836 23.769C40.4516 23.615 40.3856 23.428 40.3856 23.208V21.327C40.3856 21.129 40.4296 20.942 40.5176 20.766C40.6276 20.568 40.7376 20.403 40.8476 20.271L49.2956 10.272H41.4416C41.2216 10.272 41.0346 10.206 40.8806 10.074C40.7266 9.92 40.6496 9.722 40.6496 9.48V7.632C40.6496 7.412 40.7266 7.225 40.8806 7.071C41.0346 6.917 41.2216 6.84 41.4416 6.84H53.9486C54.1906 6.84 54.3776 6.917 54.5096 7.071C54.6636 7.225 54.7406 7.412 54.7406 7.632V9.645C54.7406 9.843 54.6966 10.019 54.6086 10.173C54.5206 10.327 54.4106 10.492 54.2786 10.668L46.0286 20.568H54.6416C54.8616 20.568 55.0486 20.645 55.2026 20.799C55.3566 20.931 55.4336 21.118 55.4336 21.36V23.208C55.4336 23.428 55.3566 23.615 55.2026 23.769C55.0486 23.923 54.8616 24 54.6416 24H41.1776Z" fill="#FF6838"/>
<path d="M61.6129 24C61.3929 24 61.2059 23.923 61.0519 23.769C60.8979 23.615 60.8209 23.428 60.8209 23.208V1.725C60.8209 1.483 60.8979 1.285 61.0519 1.131C61.2059 0.976999 61.3929 0.899998 61.6129 0.899998H70.1599C72.8219 0.899998 74.9229 1.516 76.4629 2.748C78.0029 3.98 78.7729 5.773 78.7729 8.127C78.7729 9.755 78.3659 11.108 77.5519 12.186C76.7599 13.264 75.6929 14.045 74.3509 14.529L79.1689 22.944C79.2349 23.076 79.2679 23.197 79.2679 23.307C79.2679 23.505 79.1909 23.67 79.0369 23.802C78.9049 23.934 78.7509 24 78.5749 24H75.5719C75.1979 24 74.9119 23.901 74.7139 23.703C74.5159 23.505 74.3619 23.307 74.2519 23.109L69.9949 15.288H65.4079V23.208C65.4079 23.428 65.3309 23.615 65.1769 23.769C65.0449 23.923 64.8579 24 64.6159 24H61.6129ZM65.4079 11.559H70.0609C71.4029 11.559 72.4039 11.262 73.0639 10.668C73.7239 10.052 74.0539 9.194 74.0539 8.094C74.0539 6.994 73.7239 6.136 73.0639 5.52C72.4259 4.882 71.4249 4.563 70.0609 4.563H65.4079V11.559ZM89.262 24.33C88.118 24.33 87.084 24.11 86.16 23.67C85.236 23.208 84.499 22.603 83.949 21.855C83.421 21.085 83.157 20.227 83.157 19.281C83.157 17.741 83.773 16.52 85.005 15.618C86.259 14.694 87.909 14.078 89.955 13.77L94.476 13.11V12.417C94.476 11.493 94.245 10.778 93.783 10.272C93.321 9.766 92.529 9.513 91.407 9.513C90.615 9.513 89.966 9.678 89.46 10.008C88.976 10.316 88.613 10.734 88.371 11.262C88.195 11.548 87.942 11.691 87.612 11.691H85.005C84.763 11.691 84.576 11.625 84.444 11.493C84.334 11.361 84.279 11.185 84.279 10.965C84.301 10.613 84.444 10.184 84.708 9.678C84.972 9.172 85.39 8.688 85.962 8.226C86.534 7.742 87.271 7.335 88.173 7.005C89.075 6.675 90.164 6.51 91.44 6.51C92.826 6.51 93.992 6.686 94.938 7.038C95.906 7.368 96.676 7.819 97.248 8.391C97.82 8.963 98.238 9.634 98.502 10.404C98.766 11.174 98.898 11.988 98.898 12.846V23.208C98.898 23.428 98.821 23.615 98.667 23.769C98.513 23.923 98.326 24 98.106 24H95.433C95.191 24 94.993 23.923 94.839 23.769C94.707 23.615 94.641 23.428 94.641 23.208V21.921C94.355 22.339 93.97 22.735 93.486 23.109C93.002 23.461 92.408 23.758 91.704 24C91.022 24.22 90.208 24.33 89.262 24.33ZM90.384 21.195C91.154 21.195 91.847 21.03 92.463 20.7C93.101 20.37 93.596 19.864 93.948 19.182C94.322 18.478 94.509 17.598 94.509 16.542V15.849L91.209 16.377C89.911 16.575 88.943 16.894 88.305 17.334C87.667 17.774 87.348 18.313 87.348 18.951C87.348 19.435 87.491 19.853 87.777 20.205C88.085 20.535 88.47 20.788 88.932 20.964C89.394 21.118 89.878 21.195 90.384 21.195ZM111.283 24.33C109.963 24.33 108.83 24.176 107.884 23.868C106.96 23.56 106.201 23.175 105.607 22.713C105.013 22.251 104.573 21.789 104.287 21.327C104.001 20.865 103.847 20.48 103.825 20.172C103.803 19.93 103.869 19.743 104.023 19.611C104.199 19.457 104.386 19.38 104.584 19.38H107.191C107.279 19.38 107.356 19.391 107.422 19.413C107.488 19.435 107.576 19.501 107.686 19.611C107.972 19.853 108.269 20.106 108.577 20.37C108.907 20.634 109.292 20.865 109.732 21.063C110.172 21.239 110.722 21.327 111.382 21.327C112.24 21.327 112.955 21.162 113.527 20.832C114.121 20.48 114.418 19.985 114.418 19.347C114.418 18.885 114.286 18.511 114.022 18.225C113.78 17.939 113.318 17.686 112.636 17.466C111.954 17.224 110.986 16.971 109.732 16.707C108.5 16.421 107.477 16.058 106.663 15.618C105.849 15.178 105.244 14.628 104.848 13.968C104.452 13.308 104.254 12.538 104.254 11.658C104.254 10.8 104.507 9.986 105.013 9.216C105.541 8.424 106.311 7.775 107.323 7.269C108.357 6.763 109.633 6.51 111.151 6.51C112.339 6.51 113.373 6.664 114.253 6.972C115.133 7.258 115.859 7.621 116.431 8.061C117.025 8.501 117.476 8.952 117.784 9.414C118.092 9.854 118.257 10.239 118.279 10.569C118.301 10.811 118.235 11.009 118.081 11.163C117.927 11.295 117.751 11.361 117.553 11.361H115.111C115.001 11.361 114.902 11.339 114.814 11.295C114.726 11.251 114.638 11.196 114.55 11.13C114.308 10.91 114.044 10.679 113.758 10.437C113.472 10.195 113.12 9.986 112.702 9.81C112.306 9.612 111.778 9.513 111.118 9.513C110.282 9.513 109.644 9.7 109.204 10.074C108.764 10.426 108.544 10.877 108.544 11.427C108.544 11.801 108.643 12.131 108.841 12.417C109.061 12.681 109.49 12.934 110.128 13.176C110.766 13.418 111.734 13.671 113.032 13.935C114.506 14.199 115.672 14.595 116.53 15.123C117.41 15.629 118.026 16.223 118.378 16.905C118.752 17.565 118.939 18.302 118.939 19.116C118.939 20.106 118.642 20.997 118.048 21.789C117.476 22.581 116.618 23.208 115.474 23.67C114.352 24.11 112.955 24.33 111.283 24.33Z" fill="#FAFF00"/>
<path d="M22.8091 40.807C22.7224 40.807 22.6487 40.7767 22.5881 40.716C22.5274 40.664 22.4971 40.5903 22.4971 40.495V37.687C22.4971 37.6003 22.5274 37.5267 22.5881 37.466C22.6487 37.4053 22.7224 37.375 22.8091 37.375H23.0691C23.2771 37.375 23.4547 37.2797 23.6021 37.089C23.7494 36.8897 23.8707 36.6037 23.9661 36.231C24.0614 35.8497 24.1307 35.3817 24.1741 34.827C24.2174 34.2723 24.2391 33.6397 24.2391 32.929V30.212C24.2391 30.1253 24.2694 30.0517 24.3301 29.991C24.3907 29.9303 24.4687 29.9 24.5641 29.9H30.1411C30.2364 29.9 30.3144 29.9303 30.3751 29.991C30.4357 30.0517 30.4661 30.1297 30.4661 30.225V37.375H31.0901C31.1854 37.375 31.2634 37.4053 31.3241 37.466C31.3847 37.5267 31.4151 37.6003 31.4151 37.687V40.495C31.4151 40.5903 31.3847 40.664 31.3241 40.716C31.2634 40.7767 31.1854 40.807 31.0901 40.807H29.9201C29.8247 40.807 29.7467 40.7767 29.6861 40.716C29.6341 40.664 29.6081 40.5903 29.6081 40.495V39H24.3041V40.495C24.3041 40.5903 24.2737 40.664 24.2131 40.716C24.1524 40.7767 24.0744 40.807 23.9791 40.807H22.8091ZM25.2791 37.375H28.6591V31.525H25.9941V33.163C25.9941 34.2377 25.9334 35.1173 25.8121 35.802C25.6907 36.478 25.5131 37.0023 25.2791 37.375ZM37.0066 39.13C36.2353 39.13 35.5723 39.0043 35.0176 38.753C34.4629 38.493 34.0296 38.0987 33.7176 37.57C33.4056 37.0327 33.2366 36.3653 33.2106 35.568C33.2019 35.1953 33.1976 34.827 33.1976 34.463C33.1976 34.099 33.2019 33.7263 33.2106 33.345C33.2366 32.5563 33.4099 31.8977 33.7306 31.369C34.0513 30.8403 34.4889 30.4417 35.0436 30.173C35.6069 29.9043 36.2613 29.77 37.0066 29.77C37.7519 29.77 38.4063 29.9043 38.9696 30.173C39.5329 30.4417 39.9749 30.8403 40.2956 31.369C40.6163 31.8977 40.7896 32.5563 40.8156 33.345C40.8329 33.7263 40.8416 34.099 40.8416 34.463C40.8416 34.827 40.8329 35.1953 40.8156 35.568C40.7896 36.3653 40.6206 37.0327 40.3086 37.57C39.9966 38.0987 39.5589 38.493 38.9956 38.753C38.4409 39.0043 37.7779 39.13 37.0066 39.13ZM37.0066 37.635C37.5699 37.635 38.0293 37.4703 38.3846 37.141C38.7399 36.803 38.9306 36.257 38.9566 35.503C38.9739 35.1217 38.9826 34.7707 38.9826 34.45C38.9826 34.1207 38.9739 33.7697 38.9566 33.397C38.9393 32.8943 38.8439 32.487 38.6706 32.175C38.5059 31.8543 38.2806 31.6247 37.9946 31.486C37.7086 31.3387 37.3793 31.265 37.0066 31.265C36.6426 31.265 36.3176 31.3387 36.0316 31.486C35.7456 31.6247 35.5159 31.8543 35.3426 32.175C35.1779 32.487 35.0869 32.8943 35.0696 33.397C35.0609 33.7697 35.0566 34.1207 35.0566 34.45C35.0566 34.7707 35.0609 35.1217 35.0696 35.503C35.0956 36.257 35.2863 36.803 35.6416 37.141C35.9969 37.4703 36.4519 37.635 37.0066 37.635ZM46.7087 39.13C45.9027 39.13 45.218 38.9913 44.6547 38.714C44.1 38.428 43.6753 38.025 43.3807 37.505C43.086 36.9763 42.9213 36.3437 42.8867 35.607C42.878 35.2517 42.8737 34.8703 42.8737 34.463C42.8737 34.0557 42.878 33.6657 42.8867 33.293C42.9213 32.565 43.086 31.9367 43.3807 31.408C43.684 30.8793 44.113 30.4763 44.6677 30.199C45.231 29.913 45.9113 29.77 46.7087 29.77C47.298 29.77 47.8267 29.848 48.2947 30.004C48.7627 30.16 49.1613 30.3767 49.4907 30.654C49.82 30.9227 50.0757 31.239 50.2577 31.603C50.4397 31.967 50.535 32.3613 50.5437 32.786C50.5523 32.864 50.5263 32.929 50.4657 32.981C50.4137 33.033 50.3487 33.059 50.2707 33.059H49.0357C48.9403 33.059 48.8623 33.0373 48.8017 32.994C48.741 32.942 48.6977 32.8597 48.6717 32.747C48.533 32.175 48.2947 31.785 47.9567 31.577C47.6187 31.369 47.1983 31.265 46.6957 31.265C46.115 31.265 45.6513 31.4297 45.3047 31.759C44.958 32.0797 44.7717 32.6127 44.7457 33.358C44.7197 34.0687 44.7197 34.7967 44.7457 35.542C44.7717 36.2873 44.958 36.8247 45.3047 37.154C45.6513 37.4747 46.115 37.635 46.6957 37.635C47.1983 37.635 47.6187 37.531 47.9567 37.323C48.2947 37.1063 48.533 36.7163 48.6717 36.153C48.6977 36.0317 48.741 35.9493 48.8017 35.906C48.8623 35.8627 48.9403 35.841 49.0357 35.841H50.2707C50.3487 35.841 50.4137 35.867 50.4657 35.919C50.5263 35.971 50.5523 36.036 50.5437 36.114C50.535 36.5387 50.4397 36.933 50.2577 37.297C50.0757 37.661 49.82 37.9817 49.4907 38.259C49.1613 38.5277 48.7627 38.74 48.2947 38.896C47.8267 39.052 47.298 39.13 46.7087 39.13ZM55.0494 39C54.9627 39 54.8891 38.9697 54.8284 38.909C54.7677 38.8483 54.7374 38.7747 54.7374 38.688V31.499H52.3324C52.2457 31.499 52.1721 31.4687 52.1114 31.408C52.0507 31.3473 52.0204 31.2737 52.0204 31.187V30.225C52.0204 30.1297 52.0507 30.0517 52.1114 29.991C52.1721 29.9303 52.2457 29.9 52.3324 29.9H58.9624C59.0577 29.9 59.1357 29.9303 59.1964 29.991C59.2571 30.0517 59.2874 30.1297 59.2874 30.225V31.187C59.2874 31.2737 59.2571 31.3473 59.1964 31.408C59.1357 31.4687 59.0577 31.499 58.9624 31.499H56.5704V38.688C56.5704 38.7747 56.5401 38.8483 56.4794 38.909C56.4187 38.9697 56.3407 39 56.2454 39H55.0494ZM60.6975 39C60.6281 39 60.5631 38.974 60.5025 38.922C60.4505 38.87 60.4245 38.805 60.4245 38.727C60.4245 38.6923 60.4331 38.6533 60.4505 38.61L63.5835 30.225C63.6095 30.1383 63.6571 30.0647 63.7265 30.004C63.8045 29.9347 63.9085 29.9 64.0385 29.9H65.4555C65.5855 29.9 65.6851 29.9347 65.7545 30.004C65.8238 30.0647 65.8758 30.1383 65.9105 30.225L69.0435 38.61C69.0521 38.6533 69.0565 38.6923 69.0565 38.727C69.0565 38.805 69.0305 38.87 68.9785 38.922C68.9265 38.974 68.8658 39 68.7965 39H67.6655C67.5441 39 67.4531 38.974 67.3925 38.922C67.3405 38.8613 67.3058 38.805 67.2885 38.753L66.6775 37.167H62.8165L62.2055 38.753C62.1881 38.805 62.1491 38.8613 62.0885 38.922C62.0365 38.974 61.9498 39 61.8285 39H60.6975ZM63.2715 35.672H66.2225L64.7405 31.655L63.2715 35.672ZM71.2322 39C71.1455 39 71.0718 38.9697 71.0112 38.909C70.9505 38.8483 70.9202 38.7747 70.9202 38.688V30.225C70.9202 30.1297 70.9505 30.0517 71.0112 29.991C71.0718 29.9303 71.1455 29.9 71.2322 29.9H75.0022C75.7042 29.9 76.2762 30.0083 76.7182 30.225C77.1602 30.433 77.4852 30.7233 77.6932 31.096C77.9098 31.4687 78.0182 31.902 78.0182 32.396C78.0182 32.7253 77.9575 33.0157 77.8362 33.267C77.7235 33.5097 77.5805 33.709 77.4072 33.865C77.2425 34.021 77.0778 34.1423 76.9132 34.229C77.2512 34.385 77.5502 34.645 77.8102 35.009C78.0702 35.373 78.2002 35.8063 78.2002 36.309C78.2002 36.829 78.0832 37.2927 77.8492 37.7C77.6152 38.1073 77.2685 38.428 76.8092 38.662C76.3498 38.8873 75.7822 39 75.1062 39H71.2322ZM72.7272 37.622H74.8982C75.3662 37.622 75.7215 37.4963 75.9642 37.245C76.2068 36.985 76.3282 36.673 76.3282 36.309C76.3282 35.9277 76.2025 35.6113 75.9512 35.36C75.7085 35.1087 75.3575 34.983 74.8982 34.983H72.7272V37.622ZM72.7272 33.631H74.7682C75.2275 33.631 75.5698 33.5227 75.7952 33.306C76.0292 33.0807 76.1462 32.7903 76.1462 32.435C76.1462 32.071 76.0292 31.7893 75.7952 31.59C75.5698 31.382 75.2275 31.278 74.7682 31.278H72.7272V33.631ZM80.7943 39C80.7076 39 80.6339 38.974 80.5733 38.922C80.5126 38.8613 80.4823 38.7833 80.4823 38.688V30.225C80.4823 30.1297 80.5126 30.0517 80.5733 29.991C80.6339 29.9303 80.7076 29.9 80.7943 29.9H81.9773C82.0726 29.9 82.1463 29.9303 82.1983 29.991C82.2589 30.0517 82.2893 30.1297 82.2893 30.225V33.579H83.4203L85.5393 30.134C85.5826 30.0647 85.6389 30.0083 85.7083 29.965C85.7863 29.9217 85.8859 29.9 86.0073 29.9H87.2943C87.3809 29.9 87.4459 29.926 87.4893 29.978C87.5413 30.03 87.5673 30.095 87.5673 30.173C87.5673 30.2163 87.5499 30.2683 87.5153 30.329L85.0583 34.294L87.7493 38.558C87.7753 38.584 87.7883 38.6317 87.7883 38.701C87.7883 38.779 87.7579 38.8483 87.6973 38.909C87.6453 38.9697 87.5759 39 87.4893 39H86.1503C86.0376 39 85.9509 38.974 85.8903 38.922C85.8383 38.87 85.7949 38.8223 85.7603 38.779L83.4853 35.204H82.2893V38.688C82.2893 38.7747 82.2589 38.8483 82.1983 38.909C82.1463 38.9697 82.0726 39 81.9773 39H80.7943ZM89.2822 39C89.2129 39 89.1479 38.974 89.0872 38.922C89.0352 38.87 89.0092 38.805 89.0092 38.727C89.0092 38.6923 89.0179 38.6533 89.0352 38.61L92.1682 30.225C92.1942 30.1383 92.2419 30.0647 92.3112 30.004C92.3892 29.9347 92.4932 29.9 92.6232 29.9H94.0402C94.1702 29.9 94.2699 29.9347 94.3392 30.004C94.4086 30.0647 94.4606 30.1383 94.4952 30.225L97.6282 38.61C97.6369 38.6533 97.6412 38.6923 97.6412 38.727C97.6412 38.805 97.6152 38.87 97.5632 38.922C97.5112 38.974 97.4506 39 97.3812 39H96.2502C96.1289 39 96.0379 38.974 95.9772 38.922C95.9252 38.8613 95.8906 38.805 95.8732 38.753L95.2622 37.167H91.4012L90.7902 38.753C90.7729 38.805 90.7339 38.8613 90.6732 38.922C90.6212 38.974 90.5346 39 90.4132 39H89.2822ZM91.8562 35.672H94.8072L93.3252 31.655L91.8562 35.672Z" fill="black"/>
</svg>
